<?xml version="1.0" standalone="no"?>
<!DOCTYPE svg PUBLIC "-//W3C//DTD SVG 20010904//EN"
 "http://www.w3.org/TR/2001/REC-SVG-20010904/DTD/svg10.dtd">
<svg version="1.0" xmlns="http://www.w3.org/2000/svg"
 width="512.000000pt" height="512.000000pt" viewBox="0 0 512.000000 512.000000"
 preserveAspectRatio="xMidYMid meet">
<metadata>
Created by potrace 1.14, written by Peter Selinger 2001-2017
</metadata>
<g transform="translate(0.000000,512.000000) scale(0.100000,-0.100000)"
fill="#000000" stroke="none">
<path d="M3228 5105 c-35 -19 -108 -110 -158 -194 -62 -105 -93 -210 -92 -311
1 -47 3 -92 5 -100 24 -95 73 -190 134 -254 l33 -34 -1 -868 c0 -501 -4 -889
-10 -917 -30 -159 -149 -276 -319 -313 -8 -2 -414 -4 -902 -5 -946 -1 -933 0
-1034 -50 -65 -33 -144 -113 -176 -179 -77 -159 -55 -433 41 -497 68 -46 127
-25 195 71 55 77 127 137 219 182 65 31 173 61 184 51 2 -3 5 -351 4 -772 0
-660 2 -772 15 -803 36 -86 89 -111 232 -112 111 0 153 11 192 51 50 53 52 70
52 432 l0 337 774 0 774 0 0 -342 c0 -321 1 -344 20 -382 11 -23 36 -52 57
-66 33 -22 48 -25 153 -29 101 -3 122 0 156 17 47 24 67 46 87 93 12 29 14 97
13 378 l-1 343 74 35 c147 70 258 219 312 418 22 79 22 90 25 925 1 484 -2
854 -7 868 -5 13 -23 29 -39 35 -29 11 -30 13 -30 83 0 70 1 72 30 84 19 8 33
23 39 44 6 18 9 202 9 458 l-2 426 31 35 c55 63 90 121 116 193 22 61 25 84
22 170 -4 142 -45 252 -146 390 -97 132 -170 158 -250 86 -40 -36 -45 -66 -43
-274 1 -98 -2 -178 -6 -178 -4 0 -32 11 -61 25 -74 34 -173 53 -256 49 -71 -3
-202 -40 -247 -70 l-26 -16 0 197 c0 212 -7 250 -55 281 -33 22 -106 27 -137
9z"/>
</g>
</svg>
